# xmcd
#
# Track frame offsets: 
#        150
#        16017
#        31366
#        65683
#
# Disc length: 1310 seconds
#
# Revision: 1
# Processed by: cddbd v1.5.2PL0 Copyright (c) Steve Scherf et al.
# Submitted via: ExactAudioCopy v1.0b3
#
DISCID=29051c04
DTITLE=Neo Cortex - Don't You
DYEAR=1900
DGENRE=
TTITLE0=Don't You (Trance Radio Edit)
TTITLE1=Don't You (Radio Edit)
TTITLE2=Don't You (Trance Club Mix)
TTITLE3=Don't You (Extended Mix)
EXTD=
EXTT0=
EXTT1=
EXTT2=
EXTT3=
PLAYORDER=
